<mxfile host="app.diagrams.net" modified="2023-05-23T16:18:04.080Z" agent="Mozilla/5.0 (Macintosh; Intel Mac OS X 10_15_7) AppleWebKit/537.36 (KHTML, like Gecko) Chrome/113.0.0.0 Safari/537.36" version="21.3.0" etag="uAUXmDsT_KS5vlj81YgK" type="github">
  <diagram name="Page-1" id="H3jtNibe9jOSnn6sG7Kz">
    <mxGraphModel>
      <root>
        <mxCell id="0" />
        <mxCell id="1" parent="0" />
      </root>
    </mxGraphModel>
  </diagram>
</mxfile>
